<svg width="34" height="15" viewBox="0 0 34 15" fill="none" xmlns="http://www.w3.org/2000/svg">
<rect x="1.93164" y="4.18604" width="6.44014" height="2.25405" fill="#D9D9D9"/>
<rect x="22.541" y="8.37207" width="6.44014" height="2.25405" fill="#D9D9D9"/>
<rect x="6.11719" y="8.37207" width="6.44014" height="2.25405" fill="#D9D9D9"/>
<rect x="4.18555" y="4.18604" width="10.3042" height="2.25405" transform="rotate(90 4.18555 4.18604)" fill="#D9D9D9"/>
<rect x="12.5586" y="0.321777" width="10.3042" height="2.25405" transform="rotate(90 12.5586 0.321777)" fill="#D9D9D9"/>
<rect x="28.9805" y="0.321777" width="10.3042" height="2.25405" transform="rotate(90 28.9805 0.321777)" fill="#D9D9D9"/>
<rect x="16.4219" y="14.8125" width="14.4903" height="2.25405" transform="rotate(-180 16.4219 14.8125)" fill="#D9D9D9"/>
<rect x="18.6758" y="4.18604" width="6.44014" height="2.25405" fill="#D9D9D9"/>
<rect x="20.9297" y="4.18604" width="10.3042" height="2.25405" transform="rotate(90 20.9297 4.18604)" fill="#D9D9D9"/>
<rect x="33.166" y="14.8125" width="14.4903" height="2.25405" transform="rotate(-180 33.166 14.8125)" fill="#D9D9D9"/>
<rect x="14.4902" y="14.8125" width="14.8123" height="2.25405" transform="rotate(-90 14.4902 14.8125)" fill="#D9D9D9"/>
<rect x="30.9121" y="14.8125" width="14.8123" height="2.25405" transform="rotate(-90 30.9121 14.8125)" fill="#D9D9D9"/>
<rect x="12.5586" y="2.25391" width="12.5583" height="2.25405" transform="rotate(-180 12.5586 2.25391)" fill="#D9D9D9"/>
<rect x="28.9805" y="2.25391" width="14.4903" height="2.25405" transform="rotate(-180 28.9805 2.25391)" fill="#D9D9D9"/>
</svg>
